<?xml version="1.0" standalone="no"?>
<!DOCTYPE svg PUBLIC "-//W3C//DTD SVG 20010904//EN"
 "http://www.w3.org/TR/2001/REC-SVG-20010904/DTD/svg10.dtd">
<svg version="1.0" xmlns="http://www.w3.org/2000/svg"
 width="700.000000pt" height="700.000000pt" viewBox="0 0 700.000000 700.000000"
 preserveAspectRatio="xMidYMid meet">
<metadata>
Created by potrace 1.14, written by Peter Selinger 2001-2017
</metadata>
<g transform="translate(0.000000,700.000000) scale(0.100000,-0.100000)"
fill="#000000" stroke="none">
<path d="M0 3500 l0 -3500 3500 0 3500 0 0 3500 0 3500 -3500 0 -3500 0 0
-3500z m5123 2050 c34 -27 39 -55 82 -450 19 -179 38 -344 41 -367 l6 -43 -54
0 -53 0 -24 93 c-77 302 -205 494 -392 586 -164 80 -320 104 -709 105 l-265 1
1 -1660 c0 -1170 4 -1703 12 -1807 19 -237 50 -348 115 -417 30 -32 137 -91
165 -91 7 0 12 -15 12 -40 l0 -40 -560 0 -560 0 0 38 c0 36 3 40 38 50 112 35
185 108 216 216 51 179 55 363 56 2160 l0 1599 -297 -6 c-405 -8 -564 -35
-710 -118 -169 -96 -293 -293 -364 -576 l-24 -93 -53 0 -54 0 6 43 c3 23 22
188 41 367 43 395 48 423 82 450 26 20 36 20 1623 20 1587 0 1597 0 1623 -20z"/>
</g>
</svg>
