<svg xmlns="http://www.w3.org/2000/svg" viewBox="0 0 800 225">
  <g fill="currentColor">
    <path d="M52 177.901c12.674-4.165 13.451-7.795 13.451-57.392V4.164h-14.49c-26.9 0-39.841 4.41-46.3 34.275H0L3.374 7.794C4.151.267 5.172 0 9.833 0h133.019c4.661 0 5.7.267 6.482 7.795l3.374 30.645h-4.661c-6.483-29.866-19.423-34.276-47.389-34.276H87.451V120.53c0 49.6.777 53.228 13.451 57.392v3.386h-48.92v-3.386l.022-.022Z" data-name="Path 1"/>
    <path d="M126.556 157.392c0-23.363 17.845-25.968 39.863-35.322l9.833-4.164c15.27-6.481 17.845-13.764 17.845-21.024V78.973c0-17.394-12.43-19.465-21.219-19.465-10.343 0-14.227 5.456-18.113 10.378-3.374 4.41-6.725 8.574-12.94 8.574a7.764 7.764 0 0 1-8.035-8.04c0-9.354 19.422-14.81 38.31-14.81 20.176 0 42.172 4.165 42.172 29.086v60.244c0 30.11 2.064 32.716 9.833 32.716a15.8 15.8 0 0 0 8.545-2.605l1.287 2.85c-1.82 1.558-7.236 5.189-17.091 5.189-17.334 0-22.773-8.575-22.773-20.245l-4.151 4.165c-9.056 9.086-18.378 16.1-33.893 16.1-16.824 0-29.5-9.086-29.5-25.7l.023-.022Zm38.043 19.22c8.79 0 15.781-5.457 25.371-14.81l4.15-4.165v-47.774c-2.6 3.9-8.012 8.307-17.6 12.472l-9.833 4.165c-15 6.235-19.4 14.275-19.4 27.014 0 16.369 5.949 23.117 17.336 23.117l-.023-.022Zm77.885 1.292c10.1-3.386 10.343-7.015 10.343-33.228v-41.293c0-24.409 0-25.189-12.163-27.527v-3.9l32.339-15.835v29.871l12.43-13.764c11.12-12.2 16.825-16.614 25.1-16.614 7.5 0 9.833 4.41 9.833 9.354 0 5.969-3.884 10.378-8.79 10.378-6.481 0-9.056-4.165-15.78-4.165-3.884 0-5.7 1.559-10.343 6.748L273.03 91.692v52.983c0 26.235.266 29.866 12.673 33.228v3.385h-43.215v-3.386Zm83.593-20.512c0-23.363 17.846-25.968 39.863-35.322l9.833-4.164c15.271-6.481 17.846-13.764 17.846-21.024V78.973c0-17.394-12.43-19.465-21.22-19.465-10.343 0-14.227 5.456-18.111 10.378-3.374 4.41-6.726 8.574-12.94 8.574a7.764 7.764 0 0 1-8.035-8.04c0-9.354 19.421-14.81 38.309-14.81 20.176 0 42.173 4.165 42.173 29.086v60.244c0 30.11 2.063 32.716 9.833 32.716a15.807 15.807 0 0 0 8.545-2.605l1.287 2.85c-1.821 1.558-7.236 5.189-17.091 5.189-17.336 0-22.774-8.575-22.774-20.245l-4.15 4.165c-9.056 9.086-18.378 16.1-33.893 16.1-16.825 0-29.5-9.086-29.5-25.7l.022-.022Zm38.044 19.22c8.789 0 15.781-5.457 25.369-14.81l4.151-4.165v-47.774c-2.6 3.9-8.013 8.307-17.6 12.472l-9.833 4.165c-15 6.235-19.4 14.275-19.4 27.014 0 16.369 5.949 23.117 17.334 23.117l-.022-.022Zm75.31 1.292c10.1-3.386 10.343-7.015 10.343-33.228v-41.293c0-24.409 0-25.189-12.163-27.527v-3.9l32.339-15.835v29.088l9.833-9.087c13.451-12.2 25.371-20.512 38.821-20.512 18.622 0 30.808 9.087 30.808 31.669v57.393c0 26.235 0 29.866 10.343 33.228v3.385h-42.172v-3.383c11.12-3.386 11.652-7.015 11.652-33.228V82.092c0-14.276-6.481-19.732-16.558-19.732-8.012 0-17.845 5.7-32.871 19.465l-9.833 9.087v53.741c0 26.235.266 29.865 11.386 33.228v3.385h-41.928v-3.364Zm159.411-45.7-4.151 3.118c-4.151 3.118-7.5 6.236-7.5 10.379s2.842 6.235 9.567 7.26l49.43 6.748c20.708 2.851 31.318 11.158 31.318 27.795 0 21.291-22.773 37.393-55.889 37.393-24.837 0-51.761-8.307-51.761-27.26 0-12.2 11.652-20.779 23.816-26.235-11.12-2.851-16.048-9.867-16.048-18.44 0-10.133 8.013-16.369 13.207-19.732l4.151-2.851c-11.652-6.235-20.708-17.393-20.708-33.5 0-27.015 24.836-41.8 46.323-41.8a53.174 53.174 0 0 1 24.06 5.969c8.789-7.26 19.931-11.937 26.924-11.937 5.948 0 8.545 3.118 8.545 8.307 0 4.677-3.108 7.26-6.726 7.26-5.438 0-9.322-5.456-15.537-5.456-3.374 0-6.992 1.559-10.343 3.63 11.119 6.748 19.664 18.44 19.664 34.008 0 27.015-25.1 39.732-46.588 39.732a53.291 53.291 0 0 1-21.73-4.41l-.022.022Zm22.773 88.55c29.5 0 44.5-13.763 44.5-26.48s-10.343-14.031-22.507-15.835l-43.481-5.7c-12.164 5.7-16.825 11.425-16.825 22.85 0 16.614 16.315 25.189 38.31 25.189v-.023Zm25.88-123.852c0-25.968-12.43-37.66-26.9-37.66s-26.659 11.692-26.659 37.66 12.43 35.567 26.658 35.567 26.901-9.599 26.901-35.567Zm35.268 22.583c0-40.778 31.828-64.408 58.485-64.408S800 78.707 800 119.485s-32.1 64.408-58.752 64.408-58.485-23.63-58.485-64.408Zm95.752 0c0-43.361-15.781-60.243-37.267-60.243s-37 16.881-37 60.243 15.537 60.244 37 60.244 37.267-16.882 37.267-60.244Z" data-name="Path 2"/>
  </g>
</svg>